<svg height="104.911" viewBox="0 0 102.336 104.911" width="102.336" xmlns="http://www.w3.org/2000/svg"><g fill="#fff"><path d="m100.918 10.621c.126.284.252.536.347.82.347.915.726 1.83 1.073 2.777a2.04 2.04 0 0 1 .126.631v19.373a1.667 1.667 0 0 1 -.032.41c-.347.095-26.189.126-26.947.032-.032-.189-.063-.41-.095-.631a16.938 16.938 0 0 0 -1.073-3.313c-.473-1.2-1.041-2.335-1.546-3.5a13.276 13.276 0 0 0 -2.171-3.347 63.208 63.208 0 0 0 -5.9-6.09l-1.2-1.1a12.666 12.666 0 0 0 -1.672-1.231c-.663-.442-1.325-.883-2.019-1.294a17.586 17.586 0 0 0 -4.859-1.767c-.978-.221-1.925-.41-2.9-.6a10.484 10.484 0 0 0 -3.45-.191c-.883.126-1.8.158-2.682.252a21.652 21.652 0 0 0 -3.471.631 10.526 10.526 0 0 0 -1.388.536c-1.735.852-3.5 1.735-5.238 2.619a8.146 8.146 0 0 0 -1.8 1.294c-1.01.915-2.051 1.767-3.029 2.714a22.878 22.878 0 0 0 -4.477 6.054 21.552 21.552 0 0 0 -2.083 5.68c-.221.978-.316 1.988-.473 2.966 0 .095-.032.158-.032.252-.314.102-23.191.129-23.727.002v-.6c.032-.568.063-1.167.095-1.735-.032-1.545.031-3.154.063-4.765.095-2.209.158-4.449.221-6.658l.095-3.313c.063-2.019.158-4.039.221-6.058.063-2.4.126-4.8.221-7.194.032-.6.063-1.231.095-1.83.032-.316.063-.347.379-.442l2.84-.568 3.217-.661c1.23-.252 2.492-.476 3.723-.694a.853.853 0 0 1 .473.095c.82.347 1.641.726 2.493 1.073l3.6 1.609c.694.316 1.388.631 2.114.947a.491.491 0 0 1 .347.536v5.648c0 .126.032.284.032.473.158 0 .284-.032.41-.032 2.083-.347 4.133-.694 6.216-1.01.757-.126 1.483-.221 2.24-.347 1.041-.158 2.083-.379 3.124-.536.947-.158 1.862-.284 2.808-.442 1.83-.284 3.692-.6 5.522-.883 1.231-.189 2.461-.41 3.692-.6a2.083 2.083 0 0 1 .442-.032c1.01.095 2.019.158 3.061.252l2.4.189c1.073.095 2.146.189 3.218.252l3.755.284c.568.032 1.167.095 1.735.158l3.971.284 3.345.284 1.483.095c.663.032 1.325.063 2.019.126l2.146.189c1.136.095 2.3.158 3.439.252l2.051.189c1.2.095 2.366.158 3.566.252.726.063 1.483.126 2.209.158.726.063 1.42.095 2.146.158l1.609.095c1.988.126 3.976.221 5.964.347 1.925.126 3.85.284 5.806.41.631 0 1.357.032 2.114.063zm-91.504-1.894h.6c.347-.032.41-.063.41-.41l-.095-2.934c0-.284-.063-.316-.347-.347h-1.042c-.347 0-.41.063-.41.41-.03.536-.03 1.041-.03 1.578 0 .41-.032.82-.032 1.231s.032.473.442.473zm1.041 5.459c-.063-1.231.032-2.4-.032-3.6h-1.861c0 .189-.032.347-.032.5v2.745c0 .189.063.347.252.347zm3-7.32v1.451c0 .316.063.347.379.347h1.166c.284 0 .347-.063.347-.379v-2.744c0-.316-.063-.347-.347-.379-.379-.032-.757-.063-1.136-.063-.379-.032-.41.032-.41.379-.032.442 0 .915 0 1.388zm1.767 12.748a12.553 12.553 0 0 0 .126-3.6 6.006 6.006 0 0 0 -1.862.032v.694c.032.852.063 1.672.063 2.524 0 .189.063.347.316.347zm-4.859.032a18.513 18.513 0 0 0 0-3.5 5.676 5.676 0 0 0 -1.8.032c0 .126-.032.284-.032.41v2.587c0 .158 0 .347.221.379a13.761 13.761 0 0 1 1.608.091zm4.954-9.024a4.526 4.526 0 0 0 -1.862.032c0 .158.032.347.032.5 0 .883 0 1.735-.032 2.619 0 .379 0 .379.379.41h1.01c.473 0 .5-.032.5-.5v-2.65a1.8 1.8 0 0 0 -.032-.41z" transform="translate(-.145 -.073)"/><path d="m.081 130.8h4.8a8.336 8.336 0 0 1 2.335.316 3.929 3.929 0 0 1 2.84 3.25 10.226 10.226 0 0 1 0 3.534 2.886 2.886 0 0 1 -1.483 2.209 2.516 2.516 0 0 0 -.252.189.662.662 0 0 0 .252.189 3.153 3.153 0 0 1 1.672 2.745 22.766 22.766 0 0 1 0 2.934 3.839 3.839 0 0 1 -2.781 3.534 7.55 7.55 0 0 1 -2.051.347c-1.672.032-3.313 0-4.985 0a.874.874 0 0 1 -.284-.032c-.126-.347-.158-18.648-.063-19.216zm3.061 13.442v2.4c0 .316.063.379.347.379.694 0 1.388 0 2.083-.063a1.6 1.6 0 0 0 1.609-1.672 11.132 11.132 0 0 0 0-2.051 1.676 1.676 0 0 0 -1.83-1.7c-.568-.032-1.167 0-1.735 0-.41 0-.442.032-.442.442-.032.757-.032 1.515-.032 2.272zm0-7.825v2.272c0 .316.063.379.347.379a16.756 16.756 0 0 0 2.177-.095 1.324 1.324 0 0 0 1.293-1.173 6.553 6.553 0 0 0 0-2.714 1.42 1.42 0 0 0 -1.041-1.167 3.43 3.43 0 0 0 -.82-.126c-.5-.032-.978 0-1.483 0-.41 0-.442.032-.473.442z" transform="translate(-.026 -89.551)"/><path d="m48.467 144.185c.852 1.956 1.767 3.85 2.65 5.837-.189 0-.316.032-.442.032h-2.523a.555.555 0 0 1 -.6-.379c-.6-1.451-1.231-2.871-1.8-4.291a.536.536 0 0 0 -.631-.41c-.347.032-.726 0-1.136 0a4.312 4.312 0 0 0 -.063.6v4.449c-1.041.032-2.051 0-3.092.032 0-.221-.032-.41-.032-.631v-17.986c0-.158.032-.347.032-.536.158 0 .316-.032.442-.032 1.609 0 3.218-.032 4.8 0a4.809 4.809 0 0 1 4.828 3.85 6.777 6.777 0 0 1 .221 1.956v3.024a6.576 6.576 0 0 1 -.5 2.3 4.567 4.567 0 0 1 -1.893 2.114c-.071-.055-.134.008-.261.071zm-4.544-6.279v3.849a.232.232 0 0 0 .252.252 7.44 7.44 0 0 0 2.366-.189 1.832 1.832 0 0 0 1.231-1.262 4.664 4.664 0 0 0 .221-1.325c.032-.915.032-1.8 0-2.714a4.505 4.505 0 0 0 -.095-.915 2.059 2.059 0 0 0 -1.42-1.609 7.23 7.23 0 0 0 -2.335-.126c-.158 0-.221.095-.252.252v.379c.033 1.136.033 2.272.033 3.408z" transform="translate(-27.935 -89.589)"/><path d="m234.776 130.8h5.017a5.993 5.993 0 0 1 1.83.284 4.61 4.61 0 0 1 3 2.966 6.142 6.142 0 0 1 .379 2.272c0 1.262.032 2.524-.063 3.786a4.632 4.632 0 0 1 -1.451 3.218 7.407 7.407 0 0 1 -.789.6c-.379.252-.379.221-.221.6.347.726.694 1.483 1.041 2.209.442.947.883 1.893 1.325 2.871a2.4 2.4 0 0 0 .126.347c-.158 0-.252.032-.379.032h-2.621a.456.456 0 0 1 -.5-.347c-.6-1.451-1.231-2.871-1.8-4.291a.581.581 0 0 0 -.694-.442c-.347.032-.694 0-1.073 0a3.44 3.44 0 0 0 -.032.536v4.449a14.087 14.087 0 0 1 -3.061.032c-.097-.316-.129-18.586-.034-19.122zm3.061 7.068v3.66c0 .379.032.41.442.442.442 0 .883.032 1.325 0a2.388 2.388 0 0 0 1.767-.757 2.241 2.241 0 0 0 .568-1.483c.032-1.167.032-2.335.032-3.5a3.363 3.363 0 0 0 -.189-.947 1.962 1.962 0 0 0 -1.2-1.294 7.166 7.166 0 0 0 -2.461-.189.232.232 0 0 0 -.252.252v.347c-.032 1.166-.032 2.301-.032 3.469z" transform="translate(-160.666 -89.551)"/><path d="m90.227 149.984h-3.156c-.095-.473-.221-.915-.316-1.357-.158-.694-.316-1.388-.442-2.083-.032-.221-.158-.316-.41-.316h-3.88c-.252 0-.347.126-.41.347l-.663 2.934c-.032.158-.095.316-.126.473h-3.124a3.668 3.668 0 0 1 .126-.568c.41-1.767.82-3.5 1.262-5.269.41-1.7.82-3.376 1.231-5.08.631-2.619 1.262-5.269 1.893-7.888.095-.347.095-.379.473-.379h2.682c.095 0 .189.032.347.032q2.225 9.515 4.513 19.154zm-6.184-14.325h-.095c-.536 2.587-1.1 5.175-1.641 7.825.442 0 .82.032 1.2.032h1.1a2.784 2.784 0 0 0 1.136-.095c-.032-.158-.032-.284-.063-.442-.221-1.136-.473-2.24-.694-3.376-.252-1.2-.5-2.43-.757-3.629a.841.841 0 0 1 -.189-.316z" transform="translate(-53.192 -89.551)"/><path d="m157.732 144.314h2.968c.063.316.095.536.158.789a2.046 2.046 0 0 0 1.7 1.641 2.972 2.972 0 0 0 1.294-.032 2 2 0 0 0 1.357-2.587 3.682 3.682 0 0 0 -1.262-1.8c-.789-.663-1.609-1.294-2.4-1.956a15.065 15.065 0 0 1 -2.714-2.587 5.053 5.053 0 0 1 .284-6.248 4.819 4.819 0 0 1 2.65-1.388 5.924 5.924 0 0 1 3.755.442 4.686 4.686 0 0 1 2.461 3.187 4.757 4.757 0 0 1 .158 1.515c-.978.095-1.956 0-2.966.032a6.321 6.321 0 0 1 -.126-.757 1.923 1.923 0 0 0 -1.451-1.578 1.971 1.971 0 0 0 -2.366 2.871 5.336 5.336 0 0 0 1.515 1.735c.947.757 1.925 1.451 2.871 2.209a8.611 8.611 0 0 1 1.988 2.146 5.153 5.153 0 0 1 .694 3.534 4.76 4.76 0 0 1 -.568 1.83 4.277 4.277 0 0 1 -2.808 2.24 6.326 6.326 0 0 1 -4.039-.158 4.776 4.776 0 0 1 -3.092-3.818 8.147 8.147 0 0 1 -.095-.915 1.415 1.415 0 0 1 .034-.347z" transform="translate(-107.949 -89.024)"/><path d="m130.045 135.222h-2.966c-.063-.221-.095-.442-.158-.663a2.118 2.118 0 0 0 -3.187-1.42 1.9 1.9 0 0 0 -.883 1.8 3.3 3.3 0 0 0 .789 1.672 14.212 14.212 0 0 0 2.083 1.8 18.21 18.21 0 0 1 3.155 2.682 5.206 5.206 0 0 1 1.231 4.544 5.38 5.38 0 0 1 -.694 1.956 4.545 4.545 0 0 1 -2.65 1.925 6.31 6.31 0 0 1 -3.818-.126 4.792 4.792 0 0 1 -3.124-3.282 8.522 8.522 0 0 1 -.252-1.231 3.39 3.39 0 0 1 0-.568c1.041-.032 2.019 0 3-.032.063.284.095.536.158.757a2.01 2.01 0 0 0 1.7 1.641 2.409 2.409 0 0 0 1.925-.316 2.045 2.045 0 0 0 .6-2.619 4.6 4.6 0 0 0 -.852-1.2 25.693 25.693 0 0 0 -1.988-1.7 26.53 26.53 0 0 1 -2.714-2.272 8.383 8.383 0 0 1 -1.1-1.451 5.056 5.056 0 0 1 .883-5.837 4.782 4.782 0 0 1 2.714-1.231 6.073 6.073 0 0 1 2.714.189 4.58 4.58 0 0 1 2.84 2.4 5.813 5.813 0 0 1 .568 2.4c.058.024.026.087.026.182z" transform="translate(-81.84 -88.987)"/><path d="m202.211 219.977c.032-.5 0-1.01 0-1.515v-7.636a9.76 9.76 0 0 1 2.556-.063l.032.032.032.032c0 .095.032.158.032.252v15.521a1.366 1.366 0 0 0 -.032.158h-2.431a6.4 6.4 0 0 1 -.347-.82c-1.073-2.65-2.146-5.333-3.218-7.983-.063-.126-.126-.221-.189-.347-.032 0-.063.032-.126.032 0 .158-.032.316-.032.5v8.646h-2.556c0-.158-.032-.316-.032-.473v-15.3c0-.221.095-.316.316-.316h1.893c.252 0 .347.158.41.379.347.883.694 1.8 1.073 2.682.789 1.956 1.546 3.913 2.335 5.9.063.126.126.252.189.41q.047-.095.095-.095z" transform="translate(-134.096 -144.24)"/><path d="m296.2 130.8h8.772a11.819 11.819 0 0 1 .032 3c-.158 0-.316.032-.5.032h-4.481c-.694 0-.694 0-.694.694v4.165a.251.251 0 0 0 .284.284h3.534c.41 0 .442.032.442.442v1.893c0 .095-.032.189-.032.347-.158 0-.347.032-.5.032h-3.257c-.473 0-.5.032-.5.473v4.386c0 .442.032.473.473.473h4.67c.189 0 .379.032.536.032a11.176 11.176 0 0 1 0 2.9h-8.779z" transform="translate(-202.748 -89.551)"/><path d="m198.554 130.9h8.8c.032 1.01.032 1.956 0 2.966-.221 0-.379.032-.536.032h-4.733c-.473 0-.5.032-.5.5v4.1c0 .5.032.536.5.536h3.187a3.828 3.828 0 0 1 .568.032c.032.883.032 1.767.032 2.65-.189 0-.347.032-.5.032h-3.282c-.473 0-.5.032-.5.5v4.323c0 .473.032.5.536.5h5.143a12.507 12.507 0 0 1 .063 2.9c-.316.095-8.267.126-8.74.032-.126-.347-.126-18.648-.032-19.121z" transform="translate(-135.866 -89.62)"/><path d="m229.085 296.824c-.126-.379-.126-15.619-.032-16.092.126 0 .284-.032.442-.032h3.881a4.012 4.012 0 0 1 2.934 1.041 3.885 3.885 0 0 1 1.231 2.209 8.785 8.785 0 0 1 .189 1.83c.032 2.051 0 4.1 0 6.153a6.4 6.4 0 0 1 -.473 2.524 3.875 3.875 0 0 1 -3.029 2.3 8.922 8.922 0 0 1 -1.294.095h-3.408a2.083 2.083 0 0 0 -.442-.032zm2.493-2.619c.095.032.126.063.189.063a17.1 17.1 0 0 0 1.8-.032 1.614 1.614 0 0 0 1.42-1.231 4.261 4.261 0 0 0 .189-1.073c.032-2.177.032-4.323 0-6.5a2.693 2.693 0 0 0 -.189-.978 1.619 1.619 0 0 0 -1.388-1.2 11.415 11.415 0 0 0 -1.483-.063c-.568 0-.568 0-.568.6v9.971a1.94 1.94 0 0 1 .03.438z" transform="translate(-156.742 -192.153)"/><path d="m40.222 210.632c.126 0 .284-.032.41-.032h3.786a4.546 4.546 0 0 1 2.146.473 3.8 3.8 0 0 1 1.925 2.367 4.879 4.879 0 0 1 .252 1.483c.032 1.136.032 2.3-.032 3.439a3.888 3.888 0 0 1 -1.231 2.714c-.284.252-.6.473-.947.726.663 1.609 1.483 3.187 2.177 4.859h-2.808c-.221-.536-.473-1.073-.694-1.609-.316-.757-.663-1.515-.978-2.3a.553.553 0 0 0 -.631-.41h-.597c-.189 0-.252.095-.284.284v4.007c-.883.032-1.7.032-2.556 0-.032-.284-.032-15.493.063-16zm2.587 9.308a7.578 7.578 0 0 0 2.083-.095 1.614 1.614 0 0 0 1.1-1.01 2.228 2.228 0 0 0 .189-.757c.032-1.041.063-2.083 0-3.092a1.8 1.8 0 0 0 -1.672-1.83c-.41-.032-.852-.032-1.262-.063-.473 0-.5.032-.5.5v5.837a2.452 2.452 0 0 1 .063.51z" transform="translate(-27.483 -144.172)"/><path d="m67.532 296.793c0-.221-.032-.379-.032-.536v-15.209c.032-.347.032-.379.379-.379 1.42 0 2.871-.032 4.291 0a3.9 3.9 0 0 1 3.218 1.609 4.951 4.951 0 0 1 .883 2.493 3.819 3.819 0 0 1 .032.6v6.689a5.477 5.477 0 0 1 -.631 2.65 3.759 3.759 0 0 1 -2.808 1.988 9.474 9.474 0 0 1 -1.357.095zm2.556-8.109v5.269c0 .189.095.316.284.284a13.7 13.7 0 0 0 1.609-.032 1.612 1.612 0 0 0 1.483-1.231 5.366 5.366 0 0 0 .252-1.42c.032-1.988 0-3.976 0-6a3.08 3.08 0 0 0 -.316-1.388 1.559 1.559 0 0 0 -1.262-.978c-.5-.063-1.01-.063-1.515-.095-.568 0-.568 0-.568.6.032 1.7.032 3.345.032 4.985z" transform="translate(-46.21 -192.122)"/><path d="m106.956 280.632v11.643a3.44 3.44 0 0 0 .095.82 1.635 1.635 0 0 0 1.2 1.262 2.1 2.1 0 0 0 1.451-.126 1.814 1.814 0 0 0 .978-1.672v-11.612c0-.189.095-.316.284-.316h2.083a.533.533 0 0 1 .158.063c0 .126.032.284.032.442v11.328a4.6 4.6 0 0 1 -1.1 3.092 4.126 4.126 0 0 1 -2.524 1.325 4.758 4.758 0 0 1 -2.808-.379 3.977 3.977 0 0 1 -2.24-2.808 7.233 7.233 0 0 1 -.158-1.641v-11.2a.232.232 0 0 1 .252-.252c.694.032 1.451.032 2.3.032z" transform="translate(-71.467 -192.084)"/><path d="m190.9 280.8h2.524c0 .221.032.41.032.631v10.7a5.809 5.809 0 0 0 .095 1.041 1.83 1.83 0 0 0 3.534.126 3.916 3.916 0 0 0 .095-.852v-11.58a1.342 1.342 0 0 1 .347-.063h1.893c.347 0 .379.032.379.379v11.012a5.68 5.68 0 0 1 -.536 2.682 4.067 4.067 0 0 1 -3.092 2.177 5.052 5.052 0 0 1 -2.65-.284 4.032 4.032 0 0 1 -2.461-3 5.164 5.164 0 0 1 -.126-1.2v-11.2a3.623 3.623 0 0 1 -.032-.568z" transform="translate(-130.673 -192.221)"/><path d="m241.544 226.792h-2.587c-.126-.568-.252-1.1-.379-1.641-.095-.379-.158-.757-.252-1.136-.063-.316-.126-.379-.442-.379h-3.092c-.347 0-.379.032-.473.442l-.568 2.461c-.032.095-.063.158-.095.252h-2.556a2.388 2.388 0 0 1 .032-.473c.568-2.4 1.167-4.8 1.735-7.194.5-2.051.978-4.1 1.451-6.153.158-.631.316-1.231.473-1.862.095-.41.126-.41.536-.41h1.956c.41 0 .442.032.536.442l.852 3.6c.568 2.493 1.167 4.954 1.735 7.447.347 1.42.694 2.871 1.01 4.291.097.061.097.155.128.313zm-3.755-5.49c-.442-2.146-.883-4.228-1.325-6.311 0-.063-.095-.126-.126-.221a57.352 57.352 0 0 0 -1.357 6.532z" transform="translate(-158.189 -144.24)"/><path d="m8.188 226.692c-.063-.252-.126-.473-.189-.726-.158-.694-.316-1.388-.442-2.083a.391.391 0 0 0 -.41-.379h-3.187c-.252 0-.347.095-.41.347-.158.757-.347 1.515-.5 2.272-.032.189-.095.347-.126.536h-2.624c.032-.126.032-.221.063-.316.536-2.272 1.1-4.512 1.641-6.784.694-2.84 1.357-5.68 2.051-8.519.095-.442.126-.442.568-.442h1.956c.379 0 .379 0 .473.379.442 1.8.852 3.6 1.294 5.4.568 2.43 1.136 4.859 1.735 7.289.221.883.442 1.767.631 2.619a1.667 1.667 0 0 1 .032.41zm-1.167-5.459c-.158-.757-.316-1.483-.442-2.209-.158-.726-.284-1.451-.442-2.177a12.983 12.983 0 0 0 -.536-2.114c-.316 1.073-.536 2.146-.757 3.218s-.473 2.177-.663 3.282z" transform="translate(-.214 -144.172)"/><path d="m162.789 210.6q1.893 8.046 3.786 16.029a13.422 13.422 0 0 1 -2.587.063c-.032-.095-.095-.221-.126-.347-.158-.726-.316-1.483-.473-2.209a.921.921 0 0 1 -.063-.284c-.032-.221-.158-.284-.379-.284h-3.029c-.5 0-.5 0-.6.473-.189.82-.379 1.609-.536 2.43-.032.189-.095.284-.316.284h-2.366c.095-.442.189-.852.284-1.262.316-1.325.631-2.65.978-3.976.442-1.8.852-3.6 1.294-5.4.41-1.7.82-3.408 1.231-5.08.095-.379.126-.41.5-.41.762-.027 1.519-.027 2.402-.027zm-.063 10.633a47.84 47.84 0 0 0 -1.451-6.595c-.473 2.24-.947 4.386-1.388 6.595z" transform="translate(-106.854 -144.172)"/><path d="m154.9 291.924h2.114c.442 0 .442 0 .5.442a1.755 1.755 0 0 0 .757 1.325 2.35 2.35 0 0 0 2.367.032 1.836 1.836 0 0 0 .5-2.24 3.663 3.663 0 0 0 -1.1-1.388l-2.367-1.893a7.74 7.74 0 0 1 -2.051-2.24 4.127 4.127 0 0 1 1.262-5.4 4.581 4.581 0 0 1 1.7-.6 5.007 5.007 0 0 1 2.051.095 3.884 3.884 0 0 1 2.966 3.092 2.635 2.635 0 0 1 .095 1.1 8.916 8.916 0 0 1 -2.43.032 6.644 6.644 0 0 0 -.189-.757 1.776 1.776 0 0 0 -2.934-.694 1.622 1.622 0 0 0 -.316 1.7 2.589 2.589 0 0 0 .757 1.167c.6.536 1.231 1.01 1.862 1.515.694.568 1.42 1.1 2.083 1.735a4.464 4.464 0 0 1 1.136 4.828 3.663 3.663 0 0 1 -3.029 2.619 5.3 5.3 0 0 1 -2.335-.032 4.054 4.054 0 0 1 -3.124-2.966 4.586 4.586 0 0 1 -.284-1.483z" transform="translate(-106.032 -191.607)"/><path d="m123.64 221.815h2.46a3 3 0 0 0 .126.568 1.8 1.8 0 0 0 2.051 1.483 1.625 1.625 0 0 0 1.1-.379 1.811 1.811 0 0 0 .379-2.3 4.2 4.2 0 0 0 -1.2-1.388c-.757-.631-1.546-1.231-2.335-1.83a7.243 7.243 0 0 1 -1.925-2.114 4.027 4.027 0 0 1 2.209-5.869 4.674 4.674 0 0 1 4.26.631 4.054 4.054 0 0 1 1.609 3.345 1.42 1.42 0 0 1 -.063.252c-.789.032-1.578 0-2.4 0-.032-.189-.063-.347-.095-.5a1.8 1.8 0 0 0 -2.682-1.325 1.61 1.61 0 0 0 -.726 1.862 2.438 2.438 0 0 0 .82 1.325c.568.5 1.167.947 1.767 1.451.726.6 1.483 1.136 2.146 1.8a4.645 4.645 0 0 1 .789 5.648 3.52 3.52 0 0 1 -2.461 1.735 5.3 5.3 0 0 1 -2.808-.063 3.955 3.955 0 0 1 -2.682-2.366 3.4 3.4 0 0 1 -.347-1.956z" transform="translate(-84.617 -143.586)"/><path d="m307.852 210.632a.975.975 0 0 1 .063.252v1.893c0 .316-.032.347-.347.347h-4.039c-.41 0-.442.032-.442.473v3.408c0 .442.032.473.473.473h2.524c.158 0 .347.032.536.032a1.171 1.171 0 0 1 .063.284v1.515c0 .347-.063.379-.379.379h-2.524c-.694 0-.694 0-.694.663v3.5c.032.284.063.316.347.347h4.386a8.226 8.226 0 0 1 .032 2.493h-7.32c0-.126-.032-.252-.032-.379v-15.24c0-.442 0-.473.473-.473h6.468c.128.001.286.033.412.033z" transform="translate(-205.691 -144.172)"/><path d="m276.376 130.8h2.966c.095.316.126 18.648.032 19.153h-2.966c-.095-.347-.127-18.617-.032-19.153z" transform="translate(-189.14 -89.551)"/><path d="m79.332 226.607h-2.493c0-.189-.032-.41-.032-.6v-12.207c0-.82.063-.789-.789-.789h-1.451a1.667 1.667 0 0 1 -.41-.032 7.817 7.817 0 0 1 -.032-2.43c.379-.095 7.6-.095 7.983 0v2.4a2.475 2.475 0 0 1 -.442.063h-1.734c-.5 0-.536.032-.536.536v12.464c-.032.216-.032.374-.064.595z" transform="translate(-50.69 -144.086)"/><path d="m271.026 210.646a10.975 10.975 0 0 1 2.493 0c0 .189.032.379.032.6v12.148c0 .883 0 .789.789.789h3.56c.063.852.032 1.641.032 2.493h-6.879c-.122-.348-.153-15.557-.027-16.03z" transform="translate(-185.462 -144.154)"/><path d="m107.126 210.7h2.4c.032.032.063.032.063.063l.032.032c0 .063.032.158.032.221v15.619a1.242 1.242 0 0 1 -.063.189h-2.43c-.129-.379-.16-15.651-.034-16.124z" transform="translate(-73.278 -144.24)"/><path d="m283.993 303.3c0 .6-.379.883-.915.726a3.748 3.748 0 0 1 -.789-.41c-.221-.158-.442-.316-.694-.473a2.041 2.041 0 0 0 -2.335-.032c-.221.126-.41.316-.631.473a3.538 3.538 0 0 1 -2.619.757 2.491 2.491 0 0 1 -1.357-.726c-.189-.158-.347-.347-.568-.5a1.187 1.187 0 0 0 -1.42-.095c-.284.189-.568.379-.852.6a2.642 2.642 0 0 1 -1.357.5 1.681 1.681 0 0 1 -1.294-.6 2.884 2.884 0 0 0 -.757-.631c-.631-.347-1.01-.221-1.483.347a2.105 2.105 0 0 1 -.852.726c-.189.063-.379.126-.536-.032a.431.431 0 0 1 -.032-.568 4.207 4.207 0 0 1 1.2-1.578 2.073 2.073 0 0 1 2.84.316 3.778 3.778 0 0 0 .379.347 1.1 1.1 0 0 0 1.262.158 4.76 4.76 0 0 0 .883-.473 3.417 3.417 0 0 1 1.451-.568 1.892 1.892 0 0 1 1.515.442c.221.158.41.379.631.536a1.329 1.329 0 0 0 1.767.189 5.707 5.707 0 0 0 .915-.6 3.112 3.112 0 0 1 3.155-.473c.663.252 1.325.536 1.956.82a.868.868 0 0 1 .537.822z" transform="translate(-181.674 -206.295)"/><path d="m.2 303.8a5.424 5.424 0 0 1 1.42-2.051 2.055 2.055 0 0 1 2.777.221l.095.095a1.636 1.636 0 0 0 2.335.379c.252-.126.473-.316.726-.41a5.141 5.141 0 0 1 .978-.347 1.334 1.334 0 0 1 1.2.379 3.566 3.566 0 0 0 1.357.915 1.945 1.945 0 0 0 1.041 0 4.754 4.754 0 0 0 1.609-.915 2.827 2.827 0 0 1 2.209-.631 2.665 2.665 0 0 1 .536.158c.6.252 1.167.5 1.767.757a.87.87 0 0 1 .379.978.723.723 0 0 1 -.757.347 3.074 3.074 0 0 1 -1.262-.473 2.115 2.115 0 0 0 -2.808.095 4.544 4.544 0 0 1 -1.7.947 2.428 2.428 0 0 1 -2.556-.663c-.158-.158-.347-.316-.536-.473a1.145 1.145 0 0 0 -1.451-.095c-.284.189-.568.379-.82.568a2.558 2.558 0 0 1 -.568.316 1.6 1.6 0 0 1 -1.893-.379 3.545 3.545 0 0 0 -1.167-.757.922.922 0 0 0 -1.136.252c-.095.126-.221.252-.316.379a.853.853 0 0 1 -.852.41 3.75 3.75 0 0 0 -.6 0z" transform="translate(-.145 -206.256)"/></g></svg>